<?xml version="1.0" encoding="UTF-8"?> <svg xmlns="http://www.w3.org/2000/svg" xmlns:xlink="http://www.w3.org/1999/xlink" width="1029.476" height="835.173" viewBox="0 0 1029.476 835.173"><defs><clipPath id="clip-path"><rect id="Rectangle_1484" data-name="Rectangle 1484" width="1029.476" height="835.173" fill="none"></rect></clipPath><clipPath id="clip-path-3"><rect id="Rectangle_1455" data-name="Rectangle 1455" width="167.031" height="607.991" fill="none"></rect></clipPath><clipPath id="clip-path-4"><rect id="Rectangle_1456" data-name="Rectangle 1456" width="206.468" height="607.991" fill="none"></rect></clipPath><clipPath id="clip-path-5"><rect id="Rectangle_1472" data-name="Rectangle 1472" width="12.507" height="27.93" fill="none"></rect></clipPath><clipPath id="clip-path-6"><rect id="Rectangle_1474" data-name="Rectangle 1474" width="12.878" height="27.836" fill="none"></rect></clipPath><clipPath id="clip-path-7"><rect id="Rectangle_1477" data-name="Rectangle 1477" width="12.485" height="27.935" fill="none"></rect></clipPath></defs><g id="Group_22419" data-name="Group 22419" clip-path="url(#clip-path)"><g id="Group_22418" data-name="Group 22418"><g id="Group_22417" data-name="Group 22417" clip-path="url(#clip-path)"><path id="Path_16165" data-name="Path 16165" d="M355.431,721.99c-26.385,0-49.343-1.881-69.473-5.619-46.913-8.712-73.911-26.709-101.917-47.6C141.153,636.79,96.978,601.063,64.427,556.6c-35.836-48.948-52.51-103.146-46.953-152.608,6.4-56.938,33.831-115.349,81.538-173.61,22.877-27.94,52.486-45.546,81.118-62.575,23.494-13.969,47.785-28.417,68.922-48.673C316.336,54.655,430.014-26.507,639.486,12.946c63.04,11.874,119.184,44.549,155.36,89.42,28.763,13.393,48.613,43.642,65.235,71.811,14.55,24.657,22.9,49.316,30.968,73.164,11.682,34.521,23.762,70.219,54.886,107.633q3.607,4.335,7.409,8.849c25.3,30.111,56.773,67.587,63.028,105.394,7.655,46.28-7.645,91-38.982,113.935-21.258,15.558-51.341,22.659-86.953,20.55-17.919-1.063-35.884-4.139-53.259-7.113-11.968-2.049-24.345-4.166-36.591-5.607-67.853-7.984-138.651,4.5-199.36,35.161-38.5,19.442-39.78,35.555-40.811,48.5-1.127,14.161-2.017,25.344-48.933,32.7-62.491,9.8-113.688,14.646-156.05,14.646M534.117,4.248c-143.475,0-229.117,63.6-283.9,116.1-21.275,20.389-45.652,34.885-69.226,48.9-29.821,17.734-57.986,34.484-80.677,62.2C52.812,289.453,25.5,347.57,19.143,404.178,13.633,453.222,30.2,507,65.781,555.609c32.42,44.284,76.48,79.913,119.264,111.821,59.824,44.616,114.848,71.384,326.176,38.255,45.607-7.15,46.409-17.227,47.521-31.174,1.063-13.366,2.388-30,41.726-49.869,61-30.806,132.139-43.355,200.316-35.328,12.288,1.444,24.687,3.567,36.677,5.62,17.331,2.965,35.251,6.033,53.074,7.091,35.246,2.087,64.924-4.907,85.864-20.229,30.828-22.562,45.87-66.644,38.317-112.3-6.181-37.357-37.5-74.635-62.657-104.59-2.529-3.011-5.011-5.963-7.417-8.856-31.322-37.654-43.452-73.5-55.185-108.167-8.043-23.766-16.36-48.342-30.822-72.85-16.6-28.137-34.971-56.167-61.465-69.73a203.975,203.975,0,0,1,14.283,20.882l-1.442.86a203.894,203.894,0,0,0-16.3-23.408,75.157,75.157,0,0,0-15.522-5.085l.348-1.642a74.571,74.571,0,0,1,12.928,3.98c-35.982-43.261-90.832-74.716-152.294-86.292C601.086,7.421,566.146,4.248,534.117,4.248" transform="translate(11.156 1.74)" fill="#edf6fb"></path><path id="Path_16166" data-name="Path 16166" d="M56.756,507.183c-33.567-72.239-31.006-158.074.213-231.229C90.212,198.056,159.213,137.314,236.4,94.666c135.93-75.1,304.168-99.532,456.471-60.694,39.306,10.023,77.97,24.345,110.328,47.5s58.085,55.925,65.89,93.341c5.405,25.91,2.141,52.76,5.886,78.925,14.857,103.848,119.039,152.2,117.649,256.963-.868,65.465-48.658,111.3-115.567,152C818.4,698.383,215.888,849.657,56.756,507.183" transform="translate(22.112 10.669)" fill="#ebebff"></path><path id="Path_16167" data-name="Path 16167" d="M616.252,434.578q-3.1,2.884-6.1,5.672c-7.674,7.157-14.743,13.84-20.41,19.826-51.247,54.107-70.1,151.663-70.1,151.663H489.488s1.382-13.308,5.425-33.99c7-35.879,21.961-94.941,51.462-150.566,1.1-2.076,2.215-4.129,3.352-6.191,15.123-27.354,33.858-53.617,57.014-75.577a59.617,59.617,0,0,1,9.232-6.915q1.705-1.068,3.563-2.116c17.492-9.862,44.193-17.6,55.665-.831.186.265.366.546.539.824,16.659,26.755-25.086,66.2-59.489,98.2" transform="translate(332.455 221.234)" fill="#9d99c6"></path><path id="Path_16168" data-name="Path 16168" d="M651.906,291.034q-.7,1.776-1.462,3.61c-8.68,20.8-23.762,46.561-46.94,78.091-24.56,33.366-50.728,97.641-68.041,173.219-.007.039-.02.079-.027.119q-1.065,4.657-2.081,9.363c-.04.18-.081.359-.119.539a795.8,795.8,0,0,0-14.491,93.6c-.966,10.335-1.7,23.715-2.215,34.044-.034.871-.094-.905-.126,0H470.613c-3.118-53.968,1.819-247.529,44.927-351.962.505-1.238,1.024-2.468,1.548-3.677q3.224-7.433,6.8-14.186c60.066-112.984,109.273-97.722,124.384-85.592.512.406.977.8,1.409,1.2.04.04.087.079.126.119,11.573,10.754,14.365,30.259,2.1,61.5" transform="translate(319.12 149.351)" fill="#9d99c6"></path><path id="Path_16169" data-name="Path 16169" d="M583.21,504.693a440.058,440.058,0,0,1-30.529,39.553H504.469c.25-.562,37.13-128.231,89.454-118.621,25.5,4.683,9.526,49.318-10.713,79.068" transform="translate(342.63 288.729)" fill="#9d99c6"></path><path id="Path_16170" data-name="Path 16170" d="M638.611,226.169c-25.91,21.1-47.41,46.381-65.242,74.126-.411.638-.818,1.276-1.222,1.921C519.535,385.2,499.331,489.8,492.069,571.108q-.091,1.018-.18,2.035a938.783,938.783,0,0,0-3.212,107.119h-1.995c-.991-33.219-1.117-120.593,19.054-212.562a626.137,626.137,0,0,1,23.41-81.222c.247-.685.5-1.37.752-2.049a479.055,479.055,0,0,1,21.534-49.585c22.9-45.283,51.707-82.28,85.644-110,.512.4.977.8,1.411,1.2.04.039.086.079.126.119" transform="translate(330.319 152.713)" fill="#aeceea"></path><path id="Path_16171" data-name="Path 16171" d="M606.225,262.26q-.7,1.776-1.463,3.61c-14.253,9.684-38.979,11.346-54.282,11.346-6.418,0-11.18-.292-12.815-.411l-.553-.04.166-1.988c.054.007.62.045,1.61.106,8.665.485,50.083,1.988,67.336-12.622" transform="translate(364.801 178.124)" fill="#aeceea"></path><path id="Path_16172" data-name="Path 16172" d="M523.921,345.31l-1.343,1.476c-.24-.218-.479-.438-.712-.665-17.511-16.572-23.223-46.72-24.8-58.177.505-1.238,1.023-2.468,1.548-3.679.7,6.519,5.207,41.353,24.009,59.808.425.426.858.831,1.3,1.238" transform="translate(337.599 193.07)" fill="#aeceea"></path><path id="Path_16173" data-name="Path 16173" d="M519.981,424.092a42.007,42.007,0,0,1-30.147,20.53c-.186.027-.292.034-.306.034l-.16-1.988c.02,0,.245-.02.645-.081,3.918-.551,24.533-4.6,32.2-28.516Z" transform="translate(332.374 281.233)" fill="#aeceea"></path><path id="Path_16174" data-name="Path 16174" d="M590.067,426.362c-9.437,7.168-18.768,18.223-27.566,31.065-.413.6-.819,1.2-1.224,1.8-12.157,18.056-23.25,39.384-32.148,58.377-.294.626-.586,1.238-.865,1.856-4.077,8.752-7.662,17.344-10.661,24.447-.052.126-.106-.126-.16,0H515.6c7.721-18.349,19.458-44.964,33.26-68.566.506-.858,1.011-1.716,1.516-2.566,11.484-19.287,24.313-36.818,37.407-47.173a16.174,16.174,0,0,1,2.282.759" transform="translate(350.191 289.065)" fill="#aeceea"></path><path id="Path_16175" data-name="Path 16175" d="M567.565,475.277q-1.887,2.672-3.79,5.268c-8.534,5.194-18.463,6.53-26.41,6.53a71.41,71.41,0,0,1-13.952-1.35c-.411-.086-.638-.139-.665-.146l.472-1.936c.034.007.406.094,1.058.227,5.2,1.024,28.378,4.63,43.288-8.592" transform="translate(355.044 322.803)" fill="#aeceea"></path><path id="Path_16176" data-name="Path 16176" d="M581.019,437.323c-.04,1.3-.139,2.633-.306,4.01-7.11,8.979-19.027,10.821-27.626,10.821a57.049,57.049,0,0,1-10.282-.885,19.288,19.288,0,0,1,.339-1.961c.027.007.339.066.885.16,4.821.777,27.938,3.625,36.989-12.144" transform="translate(368.663 297.025)" fill="#aeceea"></path><path id="Path_16177" data-name="Path 16177" d="M537.551,469.55c.247,1.357.432,2.141.445,2.188l-1.935.485c-.007-.027-.013-.06-.027-.106-.452-1.862-4.854-21.381,3.6-37.708q2.393-2.186,4.881-4.057c-10.275,13.82-8.08,32.806-6.964,39.191.007,0,0,.007,0,.007" transform="translate(363.019 292.291)" fill="#aeceea"></path><path id="Path_16178" data-name="Path 16178" d="M327.186,601.318H294.7c-5-33.755-16.253-83.337-41.2-119.453-4.586-6.638-10.419-14.166-16.767-22.241-1.661-2.087-3.337-4.227-5.064-6.4-28.469-36.1-62.943-80.514-42.823-103.883v-.017c.238-.24.427-.48.65-.7,13.6-14.508,38.272-3.012,53.7,9.135,1.095.873,2.139,1.728,3.132,2.584a59.187,59.187,0,0,1,7.9,8.075c19.109,24.7,33.293,52.916,43.815,81.625.786,2.173,1.573,4.329,2.309,6.5,18.666,53.789,24.894,108.555,26.827,144.773" transform="translate(124.177 232.177)" fill="#9d99c6"></path><path id="Path_16179" data-name="Path 16179" d="M221.113,503.75a430.6,430.6,0,0,0,29.879,38.71h47.184c-.244-.549-36.339-125.5-87.548-116.094-24.959,4.583-9.323,48.267,10.485,77.384" transform="translate(134.31 289.24)" fill="#9d99c6"></path><path id="Path_16180" data-name="Path 16180" d="M203.26,427.088c9.236,7.016,18.367,17.835,26.98,30.4.4.586.8,1.172,1.2,1.765,11.9,17.672,22.755,38.546,31.463,57.134.287.611.573,1.211.846,1.815,3.99,8.566,7.5,16.975,10.433,23.927.054.124.106-.124.158,0h1.8c-7.556-17.957-19.044-44.007-32.549-67.106q-.743-1.259-1.484-2.512c-11.24-18.876-23.8-36.034-36.611-46.168a15.825,15.825,0,0,0-2.233.742" transform="translate(138.052 289.57)" fill="#aeceea"></path><path id="Path_16181" data-name="Path 16181" d="M213.547,474.96q1.846,2.617,3.709,5.155c8.351,5.083,18.068,6.391,25.848,6.391a69.931,69.931,0,0,0,13.655-1.322c.4-.084.625-.136.65-.143l-.462-1.894c-.032.007-.4.091-1.034.222-5.09,1-27.774,4.53-42.366-8.409" transform="translate(145.039 322.588)" fill="#aeceea"></path><path id="Path_16182" data-name="Path 16182" d="M197.767,437.815q.058,1.9.3,3.924c6.959,8.787,18.622,10.591,27.038,10.591a55.876,55.876,0,0,0,10.062-.867,18.935,18.935,0,0,0-.331-1.919c-.027.007-.332.065-.866.156-4.719.761-27.344,3.546-36.2-11.885" transform="translate(134.321 297.359)" fill="#aeceea"></path><path id="Path_16183" data-name="Path 16183" d="M229.149,469.356c-.24,1.328-.423,2.1-.437,2.141l1.894.475c.007-.025.013-.059.027-.1.442-1.822,4.75-20.926-3.521-36.905q-2.342-2.138-4.777-3.97c10.055,13.526,7.907,32.108,6.814,38.356-.007,0,0,.007,0,.007" transform="translate(151.008 292.726)" fill="#aeceea"></path><path id="Path_16184" data-name="Path 16184" d="M306.576,598.61H304.71q-9.6-76.5-30.607-132.2c-.24-.65-.5-1.3-.752-1.95C252.46,409.9,223.308,370.741,186.1,347.472l.529-.838v-.017l.514-.788c.052.034.086.05.138.086,20.187,12.643,38.1,29.94,53.566,51.667.462.652.924,1.3,1.385,1.968a283.351,283.351,0,0,1,27.545,50.283,383.044,383.044,0,0,1,14.013,38.306c.238.719.462,1.421.667,2.138,9.7,31.7,17.074,67.99,22.122,108.333" transform="translate(126.395 234.884)" fill="#aeceea"></path><path id="Path_16185" data-name="Path 16185" d="M211.923,408.179c1.708,2.161,3.392,4.3,5.043,6.393,7.7,4.9,16.653,7.3,24.159,8.465a86.91,86.91,0,0,0,15.479,1.019c.331-.008.542-.013.628-.02l-.1-1.953c-.034,0-.479.025-1.264.034-5.775.074-29.9-.474-43.939-13.937" transform="translate(143.936 277.231)" fill="#aeceea"></path><path id="Path_16186" data-name="Path 16186" d="M218.905,393.857c-.29.856-.484,1.342-.5,1.379l1.81.729c.012-.032.032-.081.064-.149.86-2.2,8.561-22.825,1.892-41.913q-1.489-1.287-3.13-2.578c7.65,17.109,1.713,37.167-.139,42.532" transform="translate(148.34 238.616)" fill="#aeceea"></path><path id="Path_16187" data-name="Path 16187" d="M243.644,448.159l1.295,1.464c.015-.017.183-.161.463-.442,2.438-2.435,13.722-14.861,13.66-36.408-.749-2.171-1.523-4.326-2.314-6.49,2.484,23.049-8.436,36.914-12,40.767-.663.715-1.076,1.085-1.1,1.108" transform="translate(165.48 275.943)" fill="#aeceea"></path><path id="Path_16188" data-name="Path 16188" d="M500.56,607.8h-1.939c18.258-75.914,42.086-138.286,70.823-184.163,28.037-44.757,61.584-75.743,99.709-92.092l.786,1.834C593.425,366.188,536.438,458.619,500.56,607.8" transform="translate(338.658 225.179)" fill="#aeceea"></path><path id="Path_16189" data-name="Path 16189" d="M584.483,390.557q-3.093,2.874-6.092,5.666c-8.539,3.745-17.956,4.769-25.717,4.769a88.783,88.783,0,0,1-15.789-1.39c-.333-.059-.544-.1-.632-.119l.413-1.955c.034.007.479.1,1.269.232,5.82.977,30.268,4.2,46.547-7.2" transform="translate(364.217 265.262)" fill="#aeceea"></path><path id="Path_16190" data-name="Path 16190" d="M564.359,375.045c.16.912.279,1.429.286,1.469l-1.941.453q-.01-.05-.04-.161c-.526-2.354-5.075-24.387,4.643-42.614q1.705-1.068,3.563-2.116c-10.4,16.082-7.541,37.263-6.51,42.969" transform="translate(381.122 225.542)" fill="#aeceea"></path><path id="Path_16191" data-name="Path 16191" d="M533.7,426.794l-1.536,1.276c-.013-.018-.16-.191-.4-.517-2.081-2.841-11.531-17.153-8.1-38.9,1.1-2.074,2.213-4.129,3.352-6.191-6.112,22.884,2.745,38.593,5.746,43.043.558.824.917,1.263.937,1.29" transform="translate(355.164 259.764)" fill="#aeceea"></path><path id="Path_16192" data-name="Path 16192" d="M634.173,81.215v690.3a17.45,17.45,0,0,1-17.459,17.458H277.406a17.463,17.463,0,0,1-17.459-17.458V81.215a17.45,17.45,0,0,1,17.459-17.459H616.714a17.437,17.437,0,0,1,17.459,17.459" transform="translate(176.553 43.302)" fill="#363347"></path><path id="Path_16193" data-name="Path 16193" d="M626.791,81.215v690.3a17.45,17.45,0,0,1-17.459,17.458H270.024a17.463,17.463,0,0,1-17.459-17.458V81.215a17.45,17.45,0,0,1,17.459-17.459H609.332a17.437,17.437,0,0,1,17.459,17.459" transform="translate(171.539 43.302)" fill="#516a96"></path><path id="Path_16194" data-name="Path 16194" d="M578.763,702.952H286.413c-12.908,0-23.408-11.089-23.408-24.721V119.687c0-13.632,10.5-24.721,23.408-24.721h292.35c12.908,0,23.408,11.089,23.408,24.721V678.231c0,13.632-10.5,24.721-23.408,24.721" transform="translate(178.63 64.5)" fill="#eef6fb"></path><g id="Group_22404" data-name="Group 22404" transform="translate(462.462 159.459)" opacity="0.77"><g id="Group_22403" data-name="Group 22403"><g id="Group_22402" data-name="Group 22402" clip-path="url(#clip-path-3)"><path id="Path_16195" data-name="Path 16195" d="M442.439,94.962,305.79,702.953s-29.525-.052-30.382-.139L412.057,94.962Z" transform="translate(-275.408 -94.962)" fill="#fff"></path></g></g></g><g id="Group_22407" data-name="Group 22407" transform="translate(544.763 159.459)" opacity="0.77"><g id="Group_22406" data-name="Group 22406"><g id="Group_22405" data-name="Group 22405" clip-path="url(#clip-path-4)"><path id="Path_16196" data-name="Path 16196" d="M530.888,94.962,385.5,702.953H324.42L469.826,94.962Z" transform="translate(-324.42 -94.962)" fill="#fff"></path></g></g></g><path id="Path_16197" data-name="Path 16197" d="M561.145,529.687H373.7v-1.679H561.145c12.443,0,22.567-10.713,22.567-23.881V351.308h1.679V504.126c0,14.1-10.876,25.561-24.246,25.561m-221.715,0H288.945v-1.679H339.43Z" transform="translate(196.248 238.605)" fill="#2d313d"></path><path id="Path_16198" data-name="Path 16198" d="M36.118,499.332,33.34,466.843H57.161l-1.442,32.489Z" transform="translate(22.644 317.075)" fill="#f0ab8f"></path><path id="Path_16199" data-name="Path 16199" d="M33.384,467.935l1.583,18.286a94.973,94.973,0,0,0,21.406-1.343l.853-18.884Z" transform="translate(22.674 316.498)" fill="#e09b82"></path><path id="Path_16200" data-name="Path 16200" d="M31.255,498.719H93.22a19.508,19.508,0,0,0-.25-5.375c-.023-.049-60.844.349-60.844.349Z" transform="translate(21.228 335.071)" fill="#2d313d"></path><path id="Path_16201" data-name="Path 16201" d="M31.774,501.364l60.82-.4c-.584-6.3-8.485-9.256-15.862-11.135-.5-.124-.982-.235-1.468-.359-1.058-.25-2.091-.473-3.073-.7-.51-.113-1.008-.225-1.479-.324a34.351,34.351,0,0,1-5.886-1.629c-1.095-.524-2.425-1.281-3.582-1.978-.4-.237-.759-.474-1.095-.685-1.095-.683-1.879-1.206-1.879-1.206-3.981,1.3-9.976,5.049-23.139-.908l-.4,2.289-.223,1.293Z" transform="translate(21.581 327.4)" fill="#2d313d"></path><path id="Path_16202" data-name="Path 16202" d="M57.674,486.467a14.123,14.123,0,0,1,1.021,4.441l1.243-.05a15.563,15.563,0,0,0-.8-4.03c-.5-.124-.982-.237-1.468-.361" transform="translate(39.172 330.403)" fill="#2d313d"></path><path id="Path_16203" data-name="Path 16203" d="M54.962,485.86a13.85,13.85,0,0,1,1.12,4.665l1.244-.037a14.91,14.91,0,0,0-.883-4.3c-.51-.113-1.009-.225-1.481-.324" transform="translate(37.33 329.991)" fill="#2d313d"></path><path id="Path_16204" data-name="Path 16204" d="M33.4,484.772A31.128,31.128,0,0,0,47.313,488.4a19.5,19.5,0,0,0,12.826-4.416c-.4-.235-.759-.472-1.095-.684-2.314,1.978-10.785,7.625-25.416.173Z" transform="translate(22.688 328.255)" fill="#2d313d"></path><path id="Path_16205" data-name="Path 16205" d="M84.3,590.375c-22.528,3.535-43.462,5.007-59.381,0,0,0-13.47-151,10.408-289.739l47.756.21S101.451,467.583,84.3,590.375" transform="translate(14.353 204.189)" fill="#df6659"></path><path id="Path_16206" data-name="Path 16206" d="M61.568,228.809c8.938-.739,14.832-3.59,17.524-8.475,4.013-7.286-.6-16.292-.8-16.671l-1.142.6c.045.087,4.494,8.784.813,15.459-2.472,4.482-8.021,7.108-16.5,7.81Z" transform="translate(41.744 138.326)" fill="#2d313d"></path><path id="Path_16207" data-name="Path 16207" d="M122.222,499.332,111.98,466.843H135.8l7.264,32.489Z" transform="translate(76.056 317.075)" fill="#f0ab8f"></path><path id="Path_16208" data-name="Path 16208" d="M111.95,467.086,117.6,484.95a50.522,50.522,0,0,0,21.92-.722l-4.055-18.15h-8.508Z" transform="translate(76.035 316.555)" fill="#e09b82"></path><path id="Path_16209" data-name="Path 16209" d="M66.856,243.471s-64.288,11.786-58.5,75.372c2.406,26.434,22.387,44.705,22.387,44.705L38.079,341.2l25.715,8.648Z" transform="translate(5.425 165.363)" fill="#7872a4"></path><path id="Path_16210" data-name="Path 16210" d="M73.459,263.75l.875-34.858-20.2-3.154-10.1,33.419Z" transform="translate(29.91 153.319)" fill="#f0ab8f"></path><path id="Path_16211" data-name="Path 16211" d="M64.927,256.428C52.72,250.847,40.4,230.873,49.207,211.391c6.989-15.454,33.883-6.692,39.083,8.32,8.065,23.282,4.692,49.544-23.363,36.717" transform="translate(31.393 138.06)" fill="#f0ab8f"></path><path id="Path_16212" data-name="Path 16212" d="M122.636,272.41c.967-1.184,4.2-4.881,4.47-6.386.252-1.4.641-9.108,2.27-8.878,1.706.242.332,5.494,1.709,5.456.85-.023,3.713-10.275,5.5-9.224,1.175.688-1.4,6.66-.663,6.787.688.119,2.332-7.9,4.122-6.969,1.877.979-2.944,8.668-2.052,9.069.442.2,3.9-9.158,5.34-8.357,1.929,1.071-2.908,8.238-2.07,8.8.411.277,1.669-2.561,2.631-4.154.534-.883,1.332-.594,1.295.106-.388,7.251-9.293,16.273-9.717,17.432q-.95,2.584-1.971,5.017Z" transform="translate(83.293 171.917)" fill="#f0ab8f"></path><path id="Path_16213" data-name="Path 16213" d="M203.163,589.428c-21.747,3.075-42.087,3.79-59.746,0C70.132,453.473,39.46,299.9,39.46,299.9H96.082c73.14,125.993,107.08,289.529,107.08,289.529" transform="translate(26.801 203.688)" fill="#df6659"></path><path id="Path_16214" data-name="Path 16214" d="M132.461,285.234l24.1-23.21,13.539,11.16s-5.728,62.484-47.906,57.8c-29.723-3.3-49-60.725-49-60.725Z" transform="translate(49.713 177.964)" fill="#7872a4"></path><path id="Path_16215" data-name="Path 16215" d="M21.173,380.621c51.126,23.272,125.44,2.9,125.44,2.9l-2.267-7.529L144,374.83l-19.327-64.363,50.826-.611s-34.052-47.78-53.884-59.4c-5.179-3.034-12.122-5.325-19.976-6.762-.611-.109-1.234-.217-1.857-.312a116.067,116.067,0,0,0-41.318.935c-.48.1-.96.2-1.427.312a73.339,73.339,0,0,0-20.887,7.9S39.794,273.057,34.686,287c-11.618,31.7-13.368,69.565-13.548,85.7-.013.457-.013.888-.013,1.308-.035,4.2.049,6.606.049,6.606" transform="translate(14.342 164.341)" fill="#9d99c6"></path><path id="Path_16216" data-name="Path 16216" d="M47.767,370.6q1.133.086,2.269.17c.549.039,1.1.076,1.646.1,39.777,2.23,76.833-7.941,76.833-7.941l-2.269-7.524-.341-1.154L110.886,304.03c-2.534-2.589-15.272-23.342-17.257-31.737,0,0-.845,21.48,5.912,39.1,4.267,11.121,9.051,27.641,3.38,38.134-7.355,13.593-54.512,20.881-55.155,21.07" transform="translate(32.443 184.938)" fill="#7872a4"></path><rect id="Rectangle_1457" data-name="Rectangle 1457" width="1.287" height="33.642" transform="matrix(0.775, -0.632, 0.632, 0.775, 165.183, 443.808)" fill="#2d313d"></rect><path id="Path_16217" data-name="Path 16217" d="M67.58,237.977a14.939,14.939,0,0,0,10.4-2.761l-.83-.984c-.267.223-6.66,5.4-17.353.2l-.564,1.157a23.034,23.034,0,0,0,8.346,2.389" transform="translate(40.231 159.088)" fill="#2d313d"></path><path id="Path_16218" data-name="Path 16218" d="M21.122,321.133c19.675,8.094,40.742,10.743,59.927,10.743a243.283,243.283,0,0,0,63.3-8.765L144,321.95c-14.292,4.075-73.164,18.548-122.863-2.123-.012.455-.012.887-.012,1.306" transform="translate(14.346 217.223)" fill="#2d313d"></path><path id="Path_16219" data-name="Path 16219" d="M22.052,362.492c0-.547.18-55.284,13.475-93.408l-1.214-.423c-13.37,38.333-13.548,93.281-13.548,93.831Z" transform="translate(14.104 182.472)" fill="#2d313d"></path><path id="Path_16220" data-name="Path 16220" d="M42.507,244.058a25.835,25.835,0,0,0,18.537,7.182c12.313,0,23.9-6.786,26.066-8.117-.611-.107-1.234-.217-1.857-.312-5.852,3.37-26.954,13.909-41.318.935-.48.1-.959.2-1.427.312" transform="translate(28.87 164.914)" fill="#2d313d"></path><path id="Path_16221" data-name="Path 16221" d="M114.1,498.719h61.965a19.506,19.506,0,0,0-.25-5.375c-.025-.049-60.844.349-60.844.349Z" transform="translate(77.498 335.071)" fill="#2d313d"></path><path id="Path_16222" data-name="Path 16222" d="M114.622,501.364l60.82-.4c-.584-6.3-8.485-9.256-15.862-11.135-.5-.124-.982-.235-1.468-.359-1.058-.25-2.091-.473-3.073-.7-.51-.113-1.007-.225-1.481-.324a34.37,34.37,0,0,1-5.884-1.629c-1.095-.524-2.425-1.281-3.582-1.978-.4-.237-.759-.474-1.095-.685-1.095-.683-1.879-1.206-1.879-1.206-3.981,1.3-9.978,5.049-23.139-.908l-.4,2.289-.223,1.293Z" transform="translate(77.85 327.4)" fill="#2d313d"></path><path id="Path_16223" data-name="Path 16223" d="M140.522,486.467a14.094,14.094,0,0,1,1.019,4.441l1.244-.05a15.644,15.644,0,0,0-.8-4.03c-.5-.124-.982-.237-1.468-.361" transform="translate(95.441 330.403)" fill="#2d313d"></path><path id="Path_16224" data-name="Path 16224" d="M137.811,485.86a13.85,13.85,0,0,1,1.12,4.665l1.244-.037a14.91,14.91,0,0,0-.883-4.3c-.51-.113-1.007-.225-1.481-.324" transform="translate(93.6 329.991)" fill="#2d313d"></path><path id="Path_16225" data-name="Path 16225" d="M116.252,484.772a31.128,31.128,0,0,0,13.909,3.632,19.5,19.5,0,0,0,12.826-4.416c-.4-.235-.759-.472-1.095-.684-2.314,1.978-10.785,7.625-25.416.173Z" transform="translate(78.957 328.255)" fill="#2d313d"></path><rect id="Rectangle_1458" data-name="Rectangle 1458" width="1.286" height="10.714" transform="matrix(0.756, -0.654, 0.654, 0.756, 124.348, 463.75)" fill="#2d313d"></rect><path id="Path_16226" data-name="Path 16226" d="M24.655,332.075h1.286c0-12.527,1.515-28.254,1.531-28.41l-1.281-.126c-.015.158-1.536,15.947-1.536,28.536" transform="translate(16.745 206.16)" fill="#2d313d"></path><path id="Path_16227" data-name="Path 16227" d="M21.559,300.283c12.025,9.988,43.8,12.994,59.2-11.563,11.35-18.095,10.7-40.7,9.7-47.123l5.125-10.32s18.444-4.848,17.218-25.436c0,0-2.141,1.214-7.912-.183-3.206-.788-11.3-5.323-20.063-4.834-.02,0-.057-.01-.077.007-7.813-.207-24.632,2.6-30.214,27.7-4.608,20.693-22.367,20.216-31.916,27.337C3.5,270.083,7.971,289,21.559,300.283" transform="translate(6.65 136.372)" fill="#2d313d"></path><path id="Path_16228" data-name="Path 16228" d="M55.806,223.317a5.754,5.754,0,1,0,6.572-4.8,5.751,5.751,0,0,0-6.572,4.8" transform="translate(37.855 148.368)" fill="#f0ab8f"></path><path id="Path_16229" data-name="Path 16229" d="M8.772,264.688c2.154-5.135,6.294-9.65,12.3-13.423,2.811-1.77,6.275-2.881,9.941-4.057,9.019-2.893,19.24-6.173,23.668-20.594,7.377-24.049,24.08-24.966,30.919-24.246l.292-.005c6.248.238,11.855,2.962,15.583,4.776a31,31,0,0,0,3.293,1.471l.445-1.347a30.275,30.275,0,0,1-3.117-1.4c-3.9-1.892-9.785-4.752-16.328-4.908l-.082,0c-7.231-.746-24.7.265-32.36,25.248-4.211,13.711-13.633,16.735-22.745,19.658-3.756,1.2-7.3,2.341-10.263,4.206C14.06,254,9.736,258.731,7.464,264.141Z" transform="translate(5.069 136.379)" fill="#2d313d"></path><path id="Path_16230" data-name="Path 16230" d="M29.741,555.222c14.1,1.985,30.911.492,48.7-2.307,6.693-47.926,7.62-101.819,6.713-150.615-.037.564-14.643-46.5-14.643-46.5s6.364,36.763,4.183,58.889c-2.252,22.847-10.619,29.606-13.837,55.349-1.882,15.051,5.63,26.388,2.9,42.156-2.88,16.6-15.6,26.864-28.022,38.017-1.8,1.627-4.027,3.253-5.993,5.011" transform="translate(20.2 241.656)" fill="#c9544b"></path><path id="Path_16231" data-name="Path 16231" d="M70.053,406.513l1.34-.465c-5.954-17.091-11.669-34.716-16.985-52.384l-1.358.41c5.325,17.687,11.046,35.33,17,52.439" transform="translate(36.031 240.205)" fill="#2d313d"></path><path id="Path_16232" data-name="Path 16232" d="M99.344,531.313q1.672,3.2,3.4,6.409c17.657,3.782,38,3.063,59.742,0,0,0-15.465-74.509-48-161.682-1.511,15.974,2.421,32.612,7.11,48.21,6.181,20.513,13.726,41.4,11.835,62.748-1.362,15.465-9.34,31.952-22.914,40.25-3.232,1.986-7.165,3.1-11.173,4.065" transform="translate(67.473 255.402)" fill="#c9544b"></path><path id="Path_16233" data-name="Path 16233" d="M144.255,475.333l1.355-.416c-16.7-54.058-35.679-103.346-56.406-146.5l-1.278.613c20.7,43.088,39.647,92.31,56.328,146.3" transform="translate(59.719 223.06)" fill="#2d313d"></path><path id="Path_16234" data-name="Path 16234" d="M125.589,327.371a40.833,40.833,0,0,1-4.482-.252c-23.25-2.584-40.2-37.919-46.413-52.992l1.165-.479c6.124,14.862,22.805,49.707,45.387,52.218,9.539,1.063,17.956-1.323,25.018-7.083,18.79-15.329,22.159-49.8,22.19-50.149l1.254.116c-.034.351-3.446,35.34-22.647,51.007a33.107,33.107,0,0,1-21.473,7.613" transform="translate(50.731 182.454)" fill="#2d313d"></path><path id="Path_16235" data-name="Path 16235" d="M227.636,122.53v77.206a18.95,18.95,0,0,1-18.951,18.95H102.851L79.518,239.426V218.685H79a18.949,18.949,0,0,1-18.95-18.95V122.53A18.949,18.949,0,0,1,79,103.58h129.68a18.95,18.95,0,0,1,18.951,18.95" transform="translate(40.789 70.35)" fill="#fff"></path><path id="Path_16236" data-name="Path 16236" d="M110.605,154.276c6-1.3,10.863-4.661,12.681-8.779a9.546,9.546,0,0,0-.594-8.742,14.582,14.582,0,0,0-11.041-6.9,23.092,23.092,0,0,0-15.318,3.876c-4.018,2.739-5.457,4.136-7.249,8.117l2.615,1.175c1.471-3.271,2.4-4.305,6.248-6.925a20.411,20.411,0,0,1,13.356-3.4,11.875,11.875,0,0,1,8.9,5.472,6.747,6.747,0,0,1,.462,6.169c-1.431,3.244-5.617,6.045-10.665,7.135Z" transform="translate(60.506 88.099)" fill="#363347"></path><path id="Path_16237" data-name="Path 16237" d="M86.332,173.013A21.535,21.535,0,0,1,80.673,159.7a25.065,25.065,0,0,1-1.384-3.226,22.3,22.3,0,0,1,2.042-19.286c7.9-12.908,28.615-20.7,47.172-17.742,18.233,2.908,32.059,15.489,32.877,29.915.777,13.727-10.683,27.608-27.252,33a52.1,52.1,0,0,1-16.045,2.463c-12.6,0-24.914-4.275-31.752-11.811m-2.556-34.333A19.387,19.387,0,0,0,81.307,153.1a28.976,28.976,0,0,1,10.451-15.522c4.745-3.735,13.308-7.5,17.967-7.9,6.48-.556,15.9-.443,23.942,3.246,6.725,3.083,11.3,8.624,12.55,15.207a19.679,19.679,0,0,1-5.446,17.43c-9.461,9.845-28.976,13.511-43.5,8.173a31.839,31.839,0,0,1-12.285-7.968,19.367,19.367,0,0,0,3.469,5.325c9.084,10.015,28.759,13.769,44.789,8.549,15.351-5,25.984-17.668,25.279-30.12-.73-12.879-13.83-24.593-30.469-27.247a47.086,47.086,0,0,0-7.41-.574c-15.15,0-30.67,6.859-36.865,16.983m26.194-6.151c-4.136.354-12.124,3.9-16.438,7.3-5.8,4.567-9.435,10.8-9.961,17.091a19.108,19.108,0,0,0-.065,2,27.272,27.272,0,0,0,14.75,12.124c13.331,4.895,31.856,1.476,40.452-7.469a16.858,16.858,0,0,0,4.7-14.911c-1.075-5.657-5.058-10.445-10.93-13.136a41.983,41.983,0,0,0-17.2-3.227c-1.73,0-3.5.076-5.306.23" transform="translate(52.966 80.699)" fill="#363347"></path><path id="Path_16238" data-name="Path 16238" d="M143.379,163.691a28.381,28.381,0,0,0,8.564-12.241,22.441,22.441,0,0,0-3.8-22.207c-3.483-4.218-10.428-8.3-18.577-10.911l-.875,2.729c7.649,2.453,14.1,6.195,17.244,10.008a19.633,19.633,0,0,1,3.3,19.437,25.508,25.508,0,0,1-7.714,11Z" transform="translate(87.406 80.369)" fill="#363347"></path><path id="Path_16239" data-name="Path 16239" d="M133.2,170.934c13.44,0,22.792-4.771,27.775-10.634,3.2-3.763,4.463-8.571,3.864-14.7-.779-7.969-5.929-15.281-13.773-19.556l-1.372,2.514c7.011,3.822,11.607,10.3,12.293,17.321.519,5.313-.526,9.424-3.2,12.564-6.891,8.107-23.141,13.853-48.089,5.664l-.9,2.722a75.327,75.327,0,0,0,23.391,4.1" transform="translate(74.581 85.609)" fill="#363347"></path><path id="Path_16240" data-name="Path 16240" d="M95.485,173.224l2.121-1.926c8.621,9.5,28.089,16.444,44.507,11.1,16.192-5.274,27.9-18.171,27.23-30-.732-12.879-13.828-24.592-30.469-27.246-17.2-2.749-37.06,4.616-44.275,16.409a19.469,19.469,0,0,0-1.783,16.846c2.42,6.954,8.347,12.609,16.261,15.517,13.334,4.9,31.858,1.476,40.453-7.469a16.864,16.864,0,0,0,4.7-14.911c-1.075-5.657-5.058-10.446-10.93-13.136a31.683,31.683,0,0,0-22.241-1.1c-6.856,2.334-11.8,7.424-12.263,12.52a23.437,23.437,0,0,1,5.9-5.812,23.021,23.021,0,0,1,15.316-3.876,14.584,14.584,0,0,1,11.044,6.9,9.547,9.547,0,0,1,.591,8.74c-2.791,6.322-12.486,10.471-21.18,9.056a18.462,18.462,0,0,1-12.418-7.469c-1.348,3.723-1.384,6.96-.1,9.64a10.175,10.175,0,0,0,3.8,4.054l-1.526,2.426a13.085,13.085,0,0,1-4.858-5.241c-1.857-3.872-1.6-8.492.752-13.731.091-.2.181-.4.274-.593a11.41,11.41,0,0,1-.5-3.624c.17-6.45,6.025-12.91,14.236-15.705a34.213,34.213,0,0,1,24.357,1.212c6.727,3.083,11.3,8.626,12.552,15.207a19.692,19.692,0,0,1-5.444,17.43c-9.461,9.843-28.978,13.509-43.508,8.173-8.723-3.2-15.277-9.5-17.979-17.264a22.3,22.3,0,0,1,2.044-19.284c7.9-12.908,28.627-20.7,47.17-17.742,18.233,2.908,32.059,15.489,32.877,29.913.742,13.083-11.811,27.22-29.2,32.884a41.772,41.772,0,0,1-12.953,1.98c-13.857,0-27.554-6.151-34.561-13.875m20.825-26.845a21.273,21.273,0,0,0-6.787,7.7c1.7,3.865,6.079,7.056,11.408,7.924,7.372,1.2,15.828-2.25,18.1-7.385a6.747,6.747,0,0,0-.465-6.169,11.885,11.885,0,0,0-8.9-5.472,16.55,16.55,0,0,0-1.993-.118,20.807,20.807,0,0,0-11.36,3.518" transform="translate(60.317 82.654)" fill="#363347"></path><path id="Path_16241" data-name="Path 16241" d="M88.957,166.75c-3.9-4.3-5.425-10.319-4.294-16.948a30.347,30.347,0,0,1,1.911-6.532,22.2,22.2,0,0,1,3.08-15.165c7.526-12.3,26.519-18.7,46.176-15.564,19.5,3.11,33.107,14.255,33.871,27.735.777,13.727-10.683,27.608-27.252,33.006a72.6,72.6,0,0,1-21.892,3.2c-12.894,0-25.579-3.1-31.6-9.736M92.1,129.6a19.575,19.575,0,0,0-2.851,8.557,37.071,37.071,0,0,1,13.571-12.634l1.362,2.52a34.237,34.237,0,0,0-14.624,15.611,20.676,20.676,0,0,0,.761,2.791c2.418,6.954,8.346,12.609,16.26,15.516,13.333,4.9,31.858,1.478,40.453-7.469a16.854,16.854,0,0,0,4.7-14.91c-1.075-5.657-5.059-10.446-10.93-13.136a31.687,31.687,0,0,0-22.239-1.1c-7.1,2.418-12.157,7.791-12.3,13.069l-2.865-.076c.17-6.451,6.023-12.91,14.236-15.705a34.216,34.216,0,0,1,24.355,1.211c6.727,3.083,11.3,8.626,12.552,15.207a19.678,19.678,0,0,1-5.446,17.43c-9.459,9.843-28.974,13.511-43.506,8.173-8.4-3.085-14.789-9.034-17.663-16.407q-.262,1.018-.437,2.04c-.981,5.743.294,10.906,3.592,14.54,8.89,9.8,33.983,11.106,50.483,5.734,15.351-5,25.984-17.67,25.279-30.121-.687-12.1-13.331-22.174-31.463-25.067a58.712,58.712,0,0,0-9.23-.732c-14.869,0-28.382,5.7-34.051,14.963" transform="translate(57.255 75.899)" fill="#363347"></path><path id="Path_16242" data-name="Path 16242" d="M102.265,180.277c1.189-1.043,2.418-2.121,3.724-3.138a46.63,46.63,0,0,1,16.322-8.332c27.285-7.486,23.53-26.258,23.358-27.048l2.8-.625c.05.22,4.6,22.206-25.4,30.437a43.763,43.763,0,0,0-15.318,7.828c-1.241.966-2.438,2.017-3.6,3.031Z" transform="translate(69.457 95.856)" fill="#363347"></path><path id="Path_16243" data-name="Path 16243" d="M80.682,198.14H79v-19.9h-.715a19.8,19.8,0,0,1-18.71-13.324l1.587-.547a18.123,18.123,0,0,0,17.123,12.193h2.395Z" transform="translate(40.465 111.636)" fill="#2d313d"></path><path id="Path_16244" data-name="Path 16244" d="M60.614,190.863H58.935V122.869A19.812,19.812,0,0,1,78.726,103.08h31.285v1.679H78.726a18.131,18.131,0,0,0-18.112,18.11Z" transform="translate(40.028 70.011)" fill="#2d313d"></path><rect id="Rectangle_1459" data-name="Rectangle 1459" width="29.832" height="1.679" transform="translate(167.832 173.089)" fill="#2d313d"></rect><path id="Path_16245" data-name="Path 16245" d="M622.025,131.647v13.138H184.6V131.647c0-11.345,9.588-20.6,21.329-20.6H600.716c11.722,0,21.309,9.254,21.309,20.6" transform="translate(125.377 75.423)" fill="#5d76ad"></path><path id="Path_16246" data-name="Path 16246" d="M622.025,131.139v315.3c0,11.328-9.586,20.582-21.309,20.582H205.927c-11.741,0-21.329-9.254-21.329-20.582v-315.3Z" transform="translate(125.377 89.068)" fill="#9d99c6"></path><path id="Path_16247" data-name="Path 16247" d="M315.982,152.892s-7.738-9.014-3.3-15.207c0,0-12.423-28.407,13.571-29.31,0,0,4.478-25.342,45.969-2.675,0,0,34.863-5.84,20.547,49.618,2.1,12.272,3.244,26.8-10.607,27.134Z" transform="translate(210.358 65.389)" fill="#2d313d"></path><path id="Path_16248" data-name="Path 16248" d="M382.82,189.086l-7.1-51.247L339.2,158.962l-3.333,31.025-17.422,6.191c12.058,15.68,55.663,19.576,75.693-3.939Z" transform="translate(216.287 93.619)" fill="#f0ab8f"></path><path id="Path_16249" data-name="Path 16249" d="M329.237,174.37c21.507-7.049,25.942-24.37,25.942-24.37l-24.122,7.412Z" transform="translate(223.614 101.878)" fill="#2d313d"></path><path id="Path_16250" data-name="Path 16250" d="M374.265,147.521s3.914-24.931-10.508-33.172-42.974-8.661-48.764,10.853c-3.284,11.064-.747,40.762,1.793,52.654,2.28,10.676,10.441,18.71,21.052,18.7,25.221-.013,35.4-31.937,35.4-31.937Z" transform="translate(212.88 74.024)" fill="#f0ab8f"></path><path id="Path_16251" data-name="Path 16251" d="M461.27,353.04H295.579c2.47-23.5,4.524-42.22,5.919-53.3H458.254Z" transform="translate(200.754 203.58)" fill="#253b3e"></path><path id="Path_16252" data-name="Path 16252" d="M394.8,169.156s-56.137,26.373-60.09,1.944l-9.026,3.011L310.276,404.625c27.849,9.454,68.016,6.134,110.9,0l1.558-212.159-11.944-19.979Z" transform="translate(210.736 114.889)" fill="#7872a4"></path><path id="Path_16253" data-name="Path 16253" d="M349.785,441.816H289.151l6.087-88.478L310.326,209.91c.094,1.545,38.732-39.6,38.732-39.6s1.038,46.609,2.413,78.913c2.092,49.173-1.686,192.588-1.686,192.588" transform="translate(196.388 115.676)" fill="#fff"></path><path id="Path_16254" data-name="Path 16254" d="M353.085,443.228s-3.075-146-1.622-189.911c1.169-35.773,7.068-60.426,11.214-73.638,1.093-3.451,2.055-6.127,2.771-8.011.21-.527.4-.979.549-1.394a2.357,2.357,0,0,0,.131-.3c.207-.47.356-.848.47-1.132.188-.395.282-.6.282-.6l1.961,1.9.811.811,1.563,1.508,23.806,23.277,3.9,3.825,1.318,1.281,21.279,20.79L434.2,294.705,444.55,354.34l7.615,43.9v.02l.227,1.318,7.425,43.654Z" transform="translate(238.445 114.265)" fill="#fff"></path><path id="Path_16255" data-name="Path 16255" d="M272.455,230.994c-1.847-2.114-7.995-8.7-8.586-11.44-.546-2.544-1.726-16.664-4.7-16.144-3.115.547-.279,10.1-2.808,10.109-1.557.007-7.427-18.617-10.648-16.585-2.112,1.335,2.975,12.13,1.625,12.409-1.253.259-4.752-14.349-7.98-12.53-3.384,1.906,5.921,15.719,4.31,16.508-.8.391-7.7-16.562-10.3-15.005-3.474,2.081,5.83,14.933,4.329,16.016-.739.534-3.214-4.594-5.075-7.457-1.034-1.587-2.482-1.013-2.369.27,1.147,13.274,18.023,29.282,18.872,31.381q1.9,4.68,3.919,9.083Z" transform="translate(156.388 133.566)" fill="#f0ab8f"></path><path id="Path_16256" data-name="Path 16256" d="M341.29,182.908c17.809,0,43.18-11.8,44.492-12.418l-.893-1.9c-.386.18-38.719,18.021-53.35,10.293a9.745,9.745,0,0,1-5.258-7.566l-2.072.334a11.871,11.871,0,0,0,6.351,9.089,23.156,23.156,0,0,0,10.73,2.166" transform="translate(220.199 114.505)" fill="#5d567c"></path><path id="Path_16257" data-name="Path 16257" d="M350.833,151.317s13.078,1.118,12.98-10.4c-.089-10.391-12.733-11.711-15.593-6.532Z" transform="translate(236.507 89.27)" fill="#f0ab8f"></path><path id="Path_16258" data-name="Path 16258" d="M354.324,342.113s-67.263,42.964-96.313-29.785c-7.62-19.082-17.625-51.12-17.625-51.12l24.419-18.83,35.33,34.534s9.8-28.43,17.2-51.205c9.991-30.763,33.09-47.444,65.572-56.266Z" transform="translate(163.268 115.082)" fill="#fff"></path><path id="Path_16259" data-name="Path 16259" d="M377.111,148.786s-5.244,2.176-4.406,7.615c0,0-6.472.563-6.656-6.065s-.772-17.234-.772-17.234-1.8-8.483-13.993-9.014c0,0-4.507,13.257-16.7,8.75,0,0-6.693,12.184-21.01,5.566,0,0-4.488-26.511,19.131-31.018s39.285,1.856,41.117,10.073c2.269,10.167,3.293,31.325,3.293,31.325" transform="translate(212.743 71.921)" fill="#2d313d"></path><path id="Path_16260" data-name="Path 16260" d="M333.323,245.646c.007-18.839-10.354-41.57-11.88-44.816l2.922-6.176-8.424-.824c2.791-8.458,11.59-17.363,11.682-17.455l-1.268-1.261c-.4.406-9.946,10.058-12.446,19.267l-.277,1.021,8.032.784-2.2,4.651.188.386c.119.243,11.892,24.607,11.885,44.423Z" transform="translate(213.015 118.935)" fill="#2d313d"></path><rect id="Rectangle_1460" data-name="Rectangle 1460" width="52.866" height="1.787" transform="translate(503.144 446.879) rotate(-83.388)" fill="#433a60"></rect><path id="Path_16261" data-name="Path 16261" d="M324.265,242a3.921,3.921,0,1,0,3.921,3.921A3.947,3.947,0,0,0,324.265,242m0,5.75a1.819,1.819,0,1,1,1.81-1.829,1.819,1.819,0,0,1-1.81,1.829" transform="translate(217.562 164.365)" fill="#323847"></path><path id="Path_16262" data-name="Path 16262" d="M387.139,156.224c.542-1.115,13.158-27.461,3.488-41.961-4.369-6.554-12.591-9.561-24.436-8.965-1.486-1.746-8.22-8.935-18.916-9.711-9.19-.668-18.631,3.59-28.076,12.658l1.238,1.29c9.054-8.691,18.031-12.774,26.686-12.167,11.126.8,17.893,9.313,17.961,9.4l.289.371.467-.027c11.415-.66,19.25,2.077,23.3,8.144,9.1,13.647-3.478,39.926-3.607,40.19Z" transform="translate(216.797 64.875)" fill="#2d313d"></path><path id="Path_16263" data-name="Path 16263" d="M308.311,228.746a108.272,108.272,0,0,0,.878-13.873c0-10.149-1.495-23.757-8.618-30.947l-1.335,1.322c6.677,6.737,8.077,19.83,8.077,29.626a106.168,106.168,0,0,1-.86,13.6Z" transform="translate(203.239 124.92)" fill="#2d313d"></path><path id="Path_16264" data-name="Path 16264" d="M376.067,335.5l-79.014-.6a5.261,5.261,0,0,1-5.175-4.564l-15.324-114.59a5.262,5.262,0,0,1,5.256-5.959l79.014.6A5.262,5.262,0,0,1,366,214.955l15.324,114.59a5.262,5.262,0,0,1-5.256,5.959" transform="translate(187.8 142.486)" fill="#df6659"></path><path id="Path_16265" data-name="Path 16265" d="M362.035,253.113c-2.68-.828-11.373-3.2-13.316-5.222-1.8-1.876-10.226-13.269-12.48-11.264-2.363,2.1,5.068,8.735,2.923,10.075-1.322.826-16.105-11.934-17.774-8.513-1.1,2.247,8.906,8.755,7.9,9.7-.93.88-11.585-9.709-13.375-6.465-1.876,3.4,13.3,10.26,12.345,11.778-.474.751-15.255-10.043-16.649-7.353-1.861,3.6,12.811,9.639,12.1,11.351-.348.841-5.15-2.22-8.238-3.677-1.711-.809-2.64.442-1.872,1.474,7.953,10.688,30.722,15.438,32.549,16.777q4.073,2.987,8.107,5.669Z" transform="translate(211.534 160.554)" fill="#f0ab8f"></path><path id="Path_16266" data-name="Path 16266" d="M414.907,302.434l-71.221-9.3-11.548,32.242s36.1,32.825,78.438,44.754c18.134,5.11,42.144,7.8,60.152-6.257,39.459-30.8,21.655-96.725-12.031-154.47-19.086-32.719-78.955-41.165-78.955-41.165Z" transform="translate(225.585 114.262)" fill="#fff"></path><path id="Path_16267" data-name="Path 16267" d="M354.1,250.1c6.174-31.4,21.6-45.709,21.759-45.849l.5-.458-3.839-7.624,8.458.217-.1-1c-1.269-13.5-11.956-23-12.411-23.4l-1.177,1.345c.1.091,10.06,8.955,11.7,21.22l-9.41-.238,4.579,9.093c-2.782,2.749-16.072,17.141-21.816,46.354Z" transform="translate(239.306 116.805)" fill="#2d313d"></path><path id="Path_16268" data-name="Path 16268" d="M377.323,231.4l1.856-.287a97.743,97.743,0,0,1-1.234-14.812c0-33.946,22.644-34.8,23.608-34.82l-.034-1.877c-.254.005-25.451.85-25.451,36.7a99.785,99.785,0,0,0,1.256,15.1" transform="translate(255.421 121.984)" fill="#2d313d"></path><rect id="Rectangle_1461" data-name="Rectangle 1461" width="1.678" height="71.826" transform="translate(569.161 408.223) rotate(-82.557)" fill="#2d313d"></rect><path id="Path_16269" data-name="Path 16269" d="M406.016,296.232a101.364,101.364,0,0,1-27.3-4.159l.457-1.617c19.02,5.357,35.231,5.464,48.181.311a45.631,45.631,0,0,0,11.227-6.421l1.033,1.325a47.313,47.313,0,0,1-11.64,6.658,59.025,59.025,0,0,1-21.955,3.9" transform="translate(257.219 193.124)" fill="#2d313d"></path><path id="Path_16270" data-name="Path 16270" d="M410.577,307.626c-42.039-11.845-78.413-44.609-78.776-44.94l1.13-1.243c.359.327,36.452,32.832,78.1,44.566Z" transform="translate(225.356 177.569)" fill="#2d313d"></path><rect id="Rectangle_1462" data-name="Rectangle 1462" width="1.679" height="40.017" transform="matrix(0.978, -0.208, 0.208, 0.978, 640.312, 376.449)" fill="#2d313d"></rect><path id="Path_16271" data-name="Path 16271" d="M211.821,124.077a7.378,7.378,0,1,1-7.378-7.378,7.378,7.378,0,0,1,7.378,7.378" transform="translate(133.844 79.261)" fill="#fff"></path><path id="Path_16272" data-name="Path 16272" d="M224.67,124.077a7.378,7.378,0,1,1-7.378-7.378,7.378,7.378,0,0,1,7.378,7.378" transform="translate(142.571 79.261)" fill="#fff"></path><path id="Path_16273" data-name="Path 16273" d="M237.518,124.077a7.378,7.378,0,1,1-7.378-7.378,7.378,7.378,0,0,1,7.378,7.378" transform="translate(151.297 79.261)" fill="#fff"></path><path id="Path_16274" data-name="Path 16274" d="M294.956,218.506a3.41,3.41,0,0,1-3.375-2.92l-1.073-7.362a2.38,2.38,0,0,1,2.376-2.7l35.735.272a2.379,2.379,0,0,1,2.341,2.064l.907,6.777a3.412,3.412,0,0,1-3.382,3.864Z" transform="translate(197.295 139.593)" fill="#2d313d"></path><rect id="Rectangle_1463" data-name="Rectangle 1463" width="1.68" height="13.919" transform="translate(478.082 406.201) rotate(-7.619)" fill="#2d313d"></rect><path id="Path_16275" data-name="Path 16275" d="M312.1,296.195l-14.883-.2a6.129,6.129,0,0,1-6-5.291l-4.685-35.033,1.664-.223,4.685,35.033a4.444,4.444,0,0,0,4.349,3.835l14.889.2Z" transform="translate(194.614 173.495)" fill="#2d313d"></path><rect id="Rectangle_1464" data-name="Rectangle 1464" width="1.679" height="18.908" transform="translate(516.98 469.83) rotate(-89.216)" fill="#2d313d"></rect><rect id="Rectangle_1465" data-name="Rectangle 1465" width="181.505" height="1.679" transform="translate(327.079 219.368)" fill="#2d313d"></rect><path id="Path_16276" data-name="Path 16276" d="M492.706,131.988h-1.679c0-10.9-9.184-19.761-20.469-19.761H376.236v-1.679h94.322c12.213,0,22.148,9.618,22.148,21.44" transform="translate(255.536 75.083)" fill="#2d313d"></path><path id="Path_16277" data-name="Path 16277" d="M185.777,131.988H184.1c0-11.822,9.944-21.44,22.169-21.44h165.38v1.679H206.267c-11.3,0-20.489,8.864-20.489,19.761" transform="translate(125.037 75.083)" fill="#2d313d"></path><rect id="Rectangle_1466" data-name="Rectangle 1466" width="1.679" height="47.204" transform="translate(309.135 272.65)" fill="#2d313d"></rect><path id="Path_16278" data-name="Path 16278" d="M496.317,446.782h-1.679V132.318H370.92v-1.679h125.4Z" transform="translate(251.925 88.729)" fill="#2d313d"></path><path id="Path_16279" data-name="Path 16279" d="M601.055,415.764H206.267c-12.225,0-22.17-9.61-22.17-21.421v-186.5h1.679v186.5c0,10.886,9.192,19.742,20.491,19.742H601.055Z" transform="translate(125.037 141.167)" fill="#2d313d"></path><rect id="Rectangle_1467" data-name="Rectangle 1467" width="1009.287" height="3.358" transform="translate(0 831.815)" fill="#2d313d"></rect><rect id="Rectangle_1468" data-name="Rectangle 1468" width="28.403" height="3.359" transform="translate(215.164 615.112) rotate(-15.482)" fill="#fff"></rect><rect id="Rectangle_1469" data-name="Rectangle 1469" width="3.359" height="28.403" transform="translate(875.557 224.934) rotate(-58.987)" fill="#8dbee2"></rect><rect id="Rectangle_1470" data-name="Rectangle 1470" width="3.358" height="28.404" transform="matrix(0.707, -0.707, 0.707, 0.707, 209.29, 109.111)" fill="#8dbee2"></rect><g id="Group_22410" data-name="Group 22410" transform="translate(204.596 331.18)" opacity="0.6"><g id="Group_22409" data-name="Group 22409"><g id="Group_22408" data-name="Group 22408" clip-path="url(#clip-path-5)"><rect id="Rectangle_1471" data-name="Rectangle 1471" width="3.358" height="28.405" transform="translate(0 1.104) rotate(-19.189)" fill="#df6659"></rect></g></g></g><g id="Group_22413" data-name="Group 22413" transform="translate(288.617 609.584)" opacity="0.6"><g id="Group_22412" data-name="Group 22412"><g id="Group_22411" data-name="Group 22411" clip-path="url(#clip-path-6)"><rect id="Rectangle_1473" data-name="Rectangle 1473" width="3.357" height="28.404" transform="translate(0 1.149) rotate(-20.016)" fill="#df6659"></rect></g></g></g><rect id="Rectangle_1475" data-name="Rectangle 1475" width="28.404" height="3.358" transform="matrix(0.573, -0.819, 0.819, 0.573, 592.201, 82.258)" fill="#fff"></rect><g id="Group_22416" data-name="Group 22416" transform="translate(840.471 268.172)" opacity="0.6"><g id="Group_22415" data-name="Group 22415"><g id="Group_22414" data-name="Group 22414" clip-path="url(#clip-path-7)"><rect id="Rectangle_1476" data-name="Rectangle 1476" width="28.404" height="3.358" transform="matrix(0.328, -0.945, 0.945, 0.328, 0.004, 26.836)" fill="#df6659"></rect></g></g></g><path id="Path_16280" data-name="Path 16280" d="M217.1,20.417v81.145a19.917,19.917,0,0,0,19.917,19.917H348.251l24.521,21.8v-21.8h.541a19.917,19.917,0,0,0,19.917-19.917V20.417A19.916,19.916,0,0,0,373.313.5h-136.3A19.916,19.916,0,0,0,217.1,20.417" transform="translate(147.451 0.34)" fill="#9d99c6"></path><rect id="Rectangle_1478" data-name="Rectangle 1478" width="114.966" height="3.358" transform="translate(395.132 28.372)" fill="#fff"></rect><rect id="Rectangle_1479" data-name="Rectangle 1479" width="114.966" height="3.358" transform="translate(395.132 49.35)" fill="#fff"></rect><rect id="Rectangle_1480" data-name="Rectangle 1480" width="114.966" height="3.358" transform="translate(395.132 70.326)" fill="#fff"></rect><rect id="Rectangle_1481" data-name="Rectangle 1481" width="81.753" height="3.358" transform="translate(395.132 91.303)" fill="#fff"></rect><path id="Path_16281" data-name="Path 16281" d="M218.277,101.9H216.6V20.756A20.78,20.78,0,0,1,237.354,0h136.3V1.679h-136.3a19.1,19.1,0,0,0-19.077,19.077Z" transform="translate(147.111)" fill="#2d313d"></path><path id="Path_16282" data-name="Path 16282" d="M320.79,137.091l-25.92-23.04,1.117-1.254,23.124,20.555V112.583h1.38a19.1,19.1,0,0,0,19.077-19.077V12.361h1.679V93.506a20.781,20.781,0,0,1-20.458,20.755Z" transform="translate(200.273 8.395)" fill="#2d313d"></path><rect id="Rectangle_1482" data-name="Rectangle 1482" width="88.51" height="1.679" transform="translate(384.466 120.979)" fill="#2d313d"></rect></g></g></g></svg> 